/* XPM */
static char *babd7f9b59eb4811b0bc73cb4619e6echMCGVs42DjPGhlqo[] = {
/* columns rows colors chars-per-pixel */
"64 64 205 2 ",
"   c None",
".  c #201F1E",
"X  c #23211E",
"o  c #28211D",
"O  c #382D1E",
"+  c #1D1F24",
"@  c #1D1F2F",
"#  c #1D2126",
"$  c #1D232B",
"%  c #1C2532",
"&  c #1C2A38",
"*  c #242422",
"=  c #2C2721",
"-  c #363028",
";  c #4B3E30",
":  c #534431",
">  c #6D583B",
",  c #705635",
"<  c #7A613E",
"1  c #182E42",
"2  c #163244",
"3  c #1A3345",
"4  c #1B344A",
"5  c #1B3B4B",
"6  c #1B3354",
"7  c #1A3B56",
"8  c #1B3559",
"9  c #1B3B62",
"0  c #1A3978",
"q  c #1C415D",
"w  c #2C4553",
"e  c #1A456A",
"r  c #1A4868",
"t  c #195178",
"y  c #444B4D",
"u  c #616D67",
"i  c #846B46",
"p  c #8D7449",
"a  c #94744A",
"s  c #8D7450",
"d  c #AA8958",
"f  c #C69A5D",
"g  c #C29A62",
"h  c #CAAD6F",
"j  c #D5A969",
"k  c #DCAD6B",
"l  c #DFB16D",
"z  c #D4AC76",
"x  c #DDB373",
"c  c #DCB37D",
"v  c #E4B36E",
"b  c #E8B66F",
"n  c #E4B571",
"m  c #E9B771",
"M  c #ECBA72",
"N  c #E5BA7C",
"B  c #EDBE7B",
"V  c #F1BE74",
"C  c #EFC77A",
"Z  c #F6C175",
"A  c #FBC576",
"S  c #FFC977",
"D  c #FCC679",
"F  c #F2C87B",
"G  c #FFCC7A",
"H  c #FFD47D",
"J  c #FFDA7F",
"K  c #FEE17E",
"L  c #163D81",
"P  c #154C8C",
"I  c #175A89",
"U  c #175A95",
"Y  c #17649B",
"T  c #145CA9",
"R  c #115EB1",
"E  c #1665A7",
"W  c #1170BA",
"Q  c #085DCB",
"!  c #0E69C5",
"~  c #0F79CE",
"^  c #0E7CDA",
"/  c #0668E7",
"(  c #0272EC",
")  c #0276F1",
"_  c #027CF3",
"`  c #0272FF",
"'  c #037CFC",
"]  c #1482B7",
"[  c #558ABA",
"{  c #6997AD",
"}  c #6B99AE",
"|  c #719EAE",
" . c #6B9AB0",
".. c #7E9DBE",
"X. c #73A1AF",
"o. c #76A4B2",
"O. c #76A6B6",
"+. c #7CABB5",
"@. c #1387C6",
"#. c #0E8DD9",
"$. c #118EDD",
"%. c #0F9ADF",
"&. c #328ED5",
"*. c #0C85E4",
"=. c #0D97E5",
"-. c #0B9AEC",
";. c #0383F4",
":. c #048EF5",
">. c #0B89F7",
",. c #0383FC",
"<. c #038CFD",
"1. c #0491F5",
"2. c #0494FD",
"3. c #049CFF",
"4. c #0C9DFE",
"5. c #2697E6",
"6. c #3395EA",
"7. c #0DA6EA",
"8. c #0BADF5",
"9. c #05A4FF",
"0. c #0AA3FE",
"q. c #05ABFF",
"w. c #0AACFE",
"e. c #0CB7F5",
"r. c #06B4FF",
"t. c #08B4FF",
"y. c #07BBFF",
"u. c #0ABAFD",
"i. c #16B6FE",
"p. c #2AA1FD",
"a. c #37A8F6",
"s. c #24BEF9",
"d. c #3ABAFB",
"f. c #4C8EC4",
"g. c #5997DF",
"h. c #7B9BC3",
"j. c #76ABD5",
"k. c #4292E1",
"l. c #5699E3",
"z. c #58A1E1",
"x. c #5CB3E5",
"c. c #4DA8F8",
"v. c #48B2F9",
"b. c #57B9FB",
"n. c #70B4F1",
"m. c #07C2FF",
"M. c #08C4FF",
"N. c #09CCFF",
"B. c #12C9FF",
"V. c #09D3FF",
"C. c #0AD8FF",
"Z. c #37CDFE",
"A. c #52C1FD",
"S. c #7ACAF1",
"D. c #B9AA96",
"F. c #A19AA0",
"G. c #83B3B9",
"H. c #8ABBBB",
"J. c #B4B8AB",
"K. c #CFB18F",
"L. c #D8B994",
"P. c #E1BA87",
"I. c #92C2BE",
"U. c #FFCF88",
"Y. c #FFD483",
"T. c #FFDC82",
"R. c #FDD98C",
"E. c #FFE383",
"W. c #FFEB86",
"Q. c #FFEC88",
"!. c #FFF187",
"~. c #FFF48B",
"^. c #FFFB8D",
"/. c #FFFE8F",
"(. c #FDEF99",
"). c #FFF396",
"_. c #FFFF90",
"`. c #FFFD93",
"'. c #CDC4AB",
"]. c #CBC5BA",
"[. c #F5DAAE",
"{. c #D8E1BC",
"}. c #FEF7A7",
"|. c #EDE4B2",
" X c #819DC1",
".X c #8AA2C2",
"XX c #8DBEC1",
"oX c #ADBEC4",
"OX c #94C5C1",
"+X c #97C9C3",
"@X c #9ACCC5",
"#X c #9ACDC8",
"$X c #9ED0C7",
"%X c #9ED2CA",
"&X c #90C6D3",
"*X c #9EDDDE",
"=X c #B4CACA",
"-X c #A2D4CA",
";X c #A5D9CD",
":X c #A9DDCF",
">X c #A6DBD1",
",X c #A9DED1",
"<X c #A3DEDF",
"1X c #ABE0D3",
"2X c #91CEE6",
/* pixels */
"                                4 I 3 $                                                       # & r &                           ",
"                              #.r.y.y.r.8.q                                               r e.N.N.M.y.~                         ",
"                            q.r.m.m.y.y.y.r.$                                           & V.V.V.V.N.M.y.w.                      ",
"                          t r.y.y.r.q.q.q.q.q.$                                       $ V.V.V.V.V.N.N.m.r.7                     ",
"                          3.q.r.q.q.9.9.9.9.q.q.                                    $ V.V.V.V.V.V.V.N.N.r.0.                    ",
"                          9.9.9.9.9.9.q.q.q.q.q.4.                                  N.C.V.V.V.V.V.N.N.N.r.r.                    ",
"                          r.3.3.3.9.q.r.r.r.r.q.q.$                               q V.V.V.V.N.N.N.M.M.m.q.w.                    ",
"                          t.q.3.3.q.r.r.r.y.r.q.9.4.                              N.V.V.V.N.N.N.M.y.r.9.q.0.                    ",
"                          ] q.9.q.r.r.r.y.r.r.q.9.q.      ] r                     N.N.N.N.N.M.m.y.r.q.3.9.I                     ",
"                          3 r.r.r.r.r.r.r.r.r.q.3.9.      t V.7.                $ N.N.N.N.M.m.y.r.q.9.3.3.+                     ",
"                            %.r.r.r.r.r.r.r.q.q.3.9.      1 V.N.r.$             4 M.M.M.M.m.y.r.q.9.2.2.W                       ",
"                              y.r.r.y.r.r.r.q.9.3.9.6     + N.N.M.r.6           U M.M.M.m.y.y.r.q.1.2.2.                        ",
"                              4 r.r.r.r.r.r.q.9.3.2.T       M.N.N.m.q.%         @.M.m.y.y.y.r.q.3.2.2.%                         ",
"                                Y r.r.r.r.r.q.9.2.<.~       m.N.N.m.r.*.        8.m.y.y.y.r.q.9.1.2.e                           ",
"                                  $.r.r.r.q.q.q.y.N.N.N.8.  u.N.M.m.r.3.    1 V.N.9.M.y.r.q.9.2.2.U                             ",
"                                    -.r.r.m.M.y.q.9.9.y.y.r.r.M.M.y.r.9.9.u.V.N.q.q.r.r.q.q.3.2.~                               ",
"                                    + t.m.y.r.r.q.9.q.r.y.r.3.M.m.y.r.3.<.N.M.r.3.r.9.<.2.3.r.1.                                ",
"                                      0.q.r.r.r.y.N.N.r.r.q.2.m.y.y.q.3.<.m.r.2.2.3.,.<.<.2.9.=.                                ",
"                                      # 9.q.y.V.V.V.M.y.r.9.9.m.y.r.q.q.M.m.q.9.9.q.q.9.<.3.9.                                  ",
"                                        % N.V.V.V.V.V.V.V.V.V.V.V.V.N.N.N.N.N.M.m.y.y.y.r.9.%                                   ",
"                                        N.V.C.V.V.C.V.V.V.V.V.V.V.N.N.N.N.N.M.M.m.y.r.r.r.r.0.                                  ",
"                                      r V.V.V.d.{.).(.|.S.V.V.V.V.V.N.N.N.M.j.L.P.P.j.q.q.q.r.%                                 ",
"                                      e.V.V.i._./._._././.^.[.B.N.N.N.s.Y.E.T.T.T.J H U.q.q.q.#.                                ",
"                                      N.V.N._._././././.^.^.^.~.2XM.'.Q.E.E.E.T.T.J H H ].q.q.t.                                ",
"                                    5 N.V.A./././.~./.^.^.^.~.~.~.~.Q.Q.E.E.T.T.H G G G G q.q.r.#                               ",
"                                    ] N.V.|.^./.D.* ~.^.^.~.~.~.~.Q.W.E.E.T.T.J b * [.S S b.9.q.e                               ",
"                                    7.N.N.).^.}.u * W.~.~.~.~.Q.W.W.E.E.T.T.J J i * J.V A oX9.q.Y                               ",
"                                    u.N.M.~.~.z w 5 H ~.~.Q.W.W.W.E.E.T.T.J H G > 5 w j M P.9.q.@.                              ",
"                                    u.N.i.~.W.y 5 5 K Q.W.W.W.E.E.E.T.T.J H G S < 5 2 d m N 9.q.$.                              ",
"                                    w.N.d.W.W.y 5 2 W.W.W.W.E.E.E.T.T.J H G G S i 4 1 d v n 3.q.W                               ",
"                                    7.M.i.W.W.< 5 & W.W.W.E.E.E.T.J J J G G S Z f 3 1 g v n 4.9.Y                               ",
"                                    I m.i.E.W.C   O E.E.E.E.E.T.J J J H G S A Z b     l b n 3.q.4                               ",
"                                    & y.i.E.E.E.A J E.E.E.E.T.J J H H G S A Z M M j j v b x 3.q.                                ",
"                                      t.r.T.E.E.E.E.E.E.E.T.J J J H G S S Z V M m m b m v D.3.-.                                ",
"                                      e r.].J J J J J T.J J J J H G S S Z M M m m m b m v l.3.+                                 ",
"                                        *.0.G H H J J J H H H G S S A V M m m m b b b l K.2.E                                   ",
"                                          ^ w.S S G G G G S S S A V M m m m b n v n n z 1.E                                     ",
"                                          & *.q.].S S S A A Z V M m m m m b v v v n  X2.T $                                     ",
"                                  $ Y =.u.y.y.q.<.i.=XA Z V M M m v m m v v v x h.1.;.` ' ,.<.! 9                               ",
"                            E m.M.M.M.y.y.y.r.r.9.,.,.2.t.n.L.c n n n c K.l.:.>._ ' ' ,.,.,.,.<.<.2.3.2.4                       ",
"                  p Q._._.).Z.N.N.N.m.y.y.r.r.q.q.9.<.) ) [ f.&.5.5.&.&.f.[ ( ) _ ,.,.<.<.<.<.<.2.2.2.3.z.P.N U.g :             ",
"                X `._._._._.}.N.N.M.y.r.r.r.q.9.9.3.<.2.>. . .} } } } } { } _ ( ;.<.<.<.<.<.<.<.2.3.3.3.P.F B D S R.            ",
"                : ^._._._._.~.B.y.y.r.r.q.q.9.3.2.<.' y.A.OX+.o.X.X.| | | | >._ ( ;.<.<.<.2.2.2.2.2.3.6.Y.Y.T.Y.S T.X           ",
"                h _._._.~.~.Q.2Xy.r.r.q.9.9.3.<.<.Q 1.m.<X,X%X+XH.+.o.o.X.o.k.;.Q Q ;.<.<.2.2.2.2.3.9.L.T.T.T.T.G Y.p           ",
"                ~./.^.~.Q.E.E.R.r.q.q.9.3.2.<.' % 0 y.m.1X,X>X>X%XOXH.G.+.o.O.;.) + 6 _ <.<.2.2.2.9.3.S T.T.T.J S G F           ",
"              . W.!.!.W.E.E.T.H v.9.9.2.2.<.U     ' m.M.1X,X>X>X-X%X@XOXH.G.+.<.;./     ! <.:.2.3.9...H T.T.T.G Z V Y.          ",
"                H W.E.E.E.J H S B 3.2.<.<.&     L y.M.Z.1X,X,X;X;X-X#X@X+XI.H.2.;.) &     8 :.2.3.3.D J J J H S b V x           ",
"                d J T.J J H S V x h.2.!         <.m.M.S.1X,X,X;X;X-X$X@X@XOXOXp.<.;./         _ 2.D.G J J H S M v V i           ",
"                  A H H G A M n z : 4         8 y.M.M.*X1X:X,X;X;X-X%X@X@X+XOXx.2.,.;.%         7 s Z S G S M v v b             ",
"                    v v b v k j -             ^ m.M.M.*X,X;X;X;X-X-X@X@X+XOXI.x.2.:.;.U             > b m v k k k               ",
"                      = a > =                 9.m.m.m.2X:X;X;X;X-X$X@X+XOXOXI.a.2.:.3.0.                ; a a =                 ",
"                                              y.m.y.y.u.;X-X-X-X%X@X+XOXOXI.I.4.2.3.3.q.                                        ",
"                                            e m.m.y.y.r.b.%X-X$X@X+XOXI.I.XXp.3.1.2.3.9.$                                       ",
"                                            #.M.m.y.y.r.q.w.d.&X+XOXXXj.a.3.2.2.1.1.3.9.U                                       ",
"                                            8.m.m.y.r.q.9.3.3.3.3.3.2.1.1.1.2.2.2.1.2.9.$.                                      ",
"                                            e.m.y.y.r.q.3.:.;.P R *.T R ;.1.2.3.3.2.2.3.=.                                      ",
"                                            u.m.y.y.r.q.3.:.;.+       0 ;.3.9.9.9.3.2.3.-.                                      ",
"                                            u.m.y.y.r.q.3.:.;.        6 ;.q.q.q.9.3.2.3.-.                                      ",
"                                            u.m.y.y.r.q.3.:.;.@       9 2.r.r.q.9.3.1.3.-.                                      ",
"                                            s.y.y.r.r.q.3.:.;.        8 q.r.r.q.9.3.1.3.5.                                      ",
"                                          X K [.=XS.b.c.c.g.F.o       ; =Xb.b.v.c.j..XL.B                                       ",
"                                            X v E.T.H S V l i           j T.J H S V v f                                         ",
"                                                  .                                                                             ",
"                                                                                                                                "};
